<?xml version="1.0" encoding="UTF-8"?>
<svg xmlns="http://www.w3.org/2000/svg" viewBox="0 0 64 64" width="512" height="512"><g id="Ecommerce"><path d="M7,9H5a1,1,0,0,0,0,2H7A1,1,0,0,0,7,9Z"/><path d="M13,9H11a1,1,0,0,0,0,2h2a1,1,0,0,0,0-2Z"/><path d="M19,9H17a1,1,0,0,0,0,2h2a1,1,0,0,0,0-2Z"/><path d="M30,12H42a1,1,0,0,0,0-2H30a1,1,0,0,0,0,2Z"/><path d="M17,41H29a1,1,0,0,0,1-1V30.61816l2.55273,1.27637a.99822.99822,0,0,0,1.24707-.29443l3-4A.99955.99955,0,0,0,36.707,26.293l-5-5a.99892.99892,0,0,0-.51074-.27344l-5-1a1.14508,1.14508,0,0,0-.90332.27344,3.24765,3.24765,0,0,1-4.58594,0,1.146,1.146,0,0,0-.90332-.27344l-5,1a.99892.99892,0,0,0-.51074.27344l-5,5A.99955.99955,0,0,0,9.2002,27.6001l3,4a.99954.99954,0,0,0,1.24707.29443L16,30.61816V40A1,1,0,0,0,17,41Zm8-18.157V23a2,2,0,0,1-4,0v-.157a5.23372,5.23372,0,0,0,4,0Zm-11.70068,6.8894-1.979-2.63867,4.17285-4.17236L19,22.21973V23a4,4,0,0,0,8,0v-.78027l3.50684.70166,4.17285,4.17236-1.979,2.63867-3.25341-1.627A1.00009,1.00009,0,0,0,28,29V39H18V29a1.00009,1.00009,0,0,0-1.44727-.89453Z"/><path d="M0,47a1,1,0,0,0,1,1H41a1,1,0,0,0,0-2H2V15H44V36a1,1,0,0,0,2,0V8a1,1,0,0,0-1-1H23.44318l-.50666-1.35107A1.0005,1.0005,0,0,0,22,5H1A1,1,0,0,0,0,6ZM44,9v4H25.69318l-1.5-4ZM2,7H21.30713l2.25,6H2Z"/><path d="M63,39H59V38a5,5,0,0,0-10,0v1H45a1,1,0,0,0-1,1V54a5.00588,5.00588,0,0,0,5,5H59a5.00588,5.00588,0,0,0,5-5V40A1,1,0,0,0,63,39ZM51,38a3,3,0,0,1,6,0v1H51ZM62,54a3.00328,3.00328,0,0,1-3,3H49a3.00328,3.00328,0,0,1-3-3V41H62Z"/><path d="M57,44a3,3,0,0,1-6,0,1,1,0,0,0-2,0,5,5,0,0,0,10,0,1,1,0,0,0-2,0Z"/><path d="M34.35059,40.76465a.99963.99963,0,0,0,1.41406,0l2.022-2.02149a.99963.99963,0,0,0,0-1.41406l-2.0581-2.05762a.9999.9999,0,0,0-1.41407,1.41407L35.665,38.03613l-1.31445,1.31446A.99962.99962,0,0,0,34.35059,40.76465Z"/><path d="M11.68555,35.27148a.99965.99965,0,0,0-1.41407,0L8.21338,37.3291a.99963.99963,0,0,0,0,1.41406l2.022,2.02149a.99989.99989,0,1,0,1.41406-1.41406L10.335,38.03613l1.35059-1.35058A.99965.99965,0,0,0,11.68555,35.27148Z"/></g></svg>
